<?xml version="1.0" encoding="UTF-8"?>
<svg xmlns="http://www.w3.org/2000/svg" xmlns:xlink="http://www.w3.org/1999/xlink" width="300pt" height="299.999988pt" viewBox="0 0 300 299.999988" version="1.2">
<defs>
<clipPath id="clip1">
  <path d="M 132.585938 146 L 161 146 L 161 182 L 132.585938 182 Z M 132.585938 146 "/>
</clipPath>
<clipPath id="clip2">
  <path d="M 148.402344 130.476562 L 188.078125 130.476562 L 188.078125 172 L 148.402344 172 Z M 148.402344 130.476562 "/>
</clipPath>
<clipPath id="clip3">
  <path d="M 150 146 L 156 146 L 156 152 L 150 152 Z M 150 146 "/>
</clipPath>
<clipPath id="clip4">
  <path d="M 143.558594 149.132812 L 154.160156 145.367188 L 156.167969 151.019531 L 145.566406 154.785156 Z M 143.558594 149.132812 "/>
</clipPath>
<clipPath id="clip5">
  <path d="M 143.558594 149.132812 L 154.160156 145.367188 L 156.167969 151.019531 L 145.566406 154.785156 Z M 143.558594 149.132812 "/>
</clipPath>
<clipPath id="clip6">
  <path d="M 143.558594 149.132812 L 153.882812 145.464844 L 155.910156 151.175781 L 145.589844 154.839844 Z M 143.558594 149.132812 "/>
</clipPath>
<clipPath id="clip7">
  <path d="M 149 145 L 156 145 L 156 152 L 149 152 Z M 149 145 "/>
</clipPath>
<clipPath id="clip8">
  <path d="M 143.558594 149.132812 L 154.160156 145.367188 L 156.167969 151.019531 L 145.566406 154.785156 Z M 143.558594 149.132812 "/>
</clipPath>
<clipPath id="clip9">
  <path d="M 143.558594 149.132812 L 154.160156 145.367188 L 156.167969 151.019531 L 145.566406 154.785156 Z M 143.558594 149.132812 "/>
</clipPath>
<clipPath id="clip10">
  <path d="M 143.558594 149.132812 L 153.882812 145.464844 L 155.910156 151.175781 L 145.589844 154.839844 Z M 143.558594 149.132812 "/>
</clipPath>
<clipPath id="clip11">
  <path d="M 144 148 L 150 148 L 150 155 L 144 155 Z M 144 148 "/>
</clipPath>
<clipPath id="clip12">
  <path d="M 143.558594 149.132812 L 154.160156 145.367188 L 156.167969 151.019531 L 145.566406 154.785156 Z M 143.558594 149.132812 "/>
</clipPath>
<clipPath id="clip13">
  <path d="M 143.558594 149.132812 L 154.160156 145.367188 L 156.167969 151.019531 L 145.566406 154.785156 Z M 143.558594 149.132812 "/>
</clipPath>
<clipPath id="clip14">
  <path d="M 143.558594 149.132812 L 153.882812 145.464844 L 155.910156 151.175781 L 145.589844 154.839844 Z M 143.558594 149.132812 "/>
</clipPath>
<clipPath id="clip15">
  <path d="M 148 149 L 151 149 L 151 152 L 148 152 Z M 148 149 "/>
</clipPath>
<clipPath id="clip16">
  <path d="M 143.558594 149.132812 L 154.160156 145.367188 L 156.167969 151.019531 L 145.566406 154.785156 Z M 143.558594 149.132812 "/>
</clipPath>
<clipPath id="clip17">
  <path d="M 143.558594 149.132812 L 154.160156 145.367188 L 156.167969 151.019531 L 145.566406 154.785156 Z M 143.558594 149.132812 "/>
</clipPath>
<clipPath id="clip18">
  <path d="M 143.558594 149.132812 L 153.882812 145.464844 L 155.910156 151.175781 L 145.589844 154.839844 Z M 143.558594 149.132812 "/>
</clipPath>
<clipPath id="clip19">
  <path d="M 150 148 L 152 148 L 152 150 L 150 150 Z M 150 148 "/>
</clipPath>
<clipPath id="clip20">
  <path d="M 143.558594 149.132812 L 154.160156 145.367188 L 156.167969 151.019531 L 145.566406 154.785156 Z M 143.558594 149.132812 "/>
</clipPath>
<clipPath id="clip21">
  <path d="M 143.558594 149.132812 L 154.160156 145.367188 L 156.167969 151.019531 L 145.566406 154.785156 Z M 143.558594 149.132812 "/>
</clipPath>
<clipPath id="clip22">
  <path d="M 143.558594 149.132812 L 153.882812 145.464844 L 155.910156 151.175781 L 145.589844 154.839844 Z M 143.558594 149.132812 "/>
</clipPath>
<clipPath id="clip23">
  <path d="M 150 148 L 152 148 L 152 151 L 150 151 Z M 150 148 "/>
</clipPath>
<clipPath id="clip24">
  <path d="M 143.558594 149.132812 L 154.160156 145.367188 L 156.167969 151.019531 L 145.566406 154.785156 Z M 143.558594 149.132812 "/>
</clipPath>
<clipPath id="clip25">
  <path d="M 143.558594 149.132812 L 154.160156 145.367188 L 156.167969 151.019531 L 145.566406 154.785156 Z M 143.558594 149.132812 "/>
</clipPath>
<clipPath id="clip26">
  <path d="M 143.558594 149.132812 L 153.882812 145.464844 L 155.910156 151.175781 L 145.589844 154.839844 Z M 143.558594 149.132812 "/>
</clipPath>
<clipPath id="clip27">
  <path d="M 150 150 L 153 150 L 153 151 L 150 151 Z M 150 150 "/>
</clipPath>
<clipPath id="clip28">
  <path d="M 143.558594 149.132812 L 154.160156 145.367188 L 156.167969 151.019531 L 145.566406 154.785156 Z M 143.558594 149.132812 "/>
</clipPath>
<clipPath id="clip29">
  <path d="M 143.558594 149.132812 L 154.160156 145.367188 L 156.167969 151.019531 L 145.566406 154.785156 Z M 143.558594 149.132812 "/>
</clipPath>
<clipPath id="clip30">
  <path d="M 143.558594 149.132812 L 153.882812 145.464844 L 155.910156 151.175781 L 145.589844 154.839844 Z M 143.558594 149.132812 "/>
</clipPath>
<clipPath id="clip31">
  <path d="M 147 150 L 150 150 L 150 151 L 147 151 Z M 147 150 "/>
</clipPath>
<clipPath id="clip32">
  <path d="M 143.558594 149.132812 L 154.160156 145.367188 L 156.167969 151.019531 L 145.566406 154.785156 Z M 143.558594 149.132812 "/>
</clipPath>
<clipPath id="clip33">
  <path d="M 143.558594 149.132812 L 154.160156 145.367188 L 156.167969 151.019531 L 145.566406 154.785156 Z M 143.558594 149.132812 "/>
</clipPath>
<clipPath id="clip34">
  <path d="M 143.558594 149.132812 L 153.882812 145.464844 L 155.910156 151.175781 L 145.589844 154.839844 Z M 143.558594 149.132812 "/>
</clipPath>
<clipPath id="clip35">
  <path d="M 147 150 L 150 150 L 150 152 L 147 152 Z M 147 150 "/>
</clipPath>
<clipPath id="clip36">
  <path d="M 143.558594 149.132812 L 154.160156 145.367188 L 156.167969 151.019531 L 145.566406 154.785156 Z M 143.558594 149.132812 "/>
</clipPath>
<clipPath id="clip37">
  <path d="M 143.558594 149.132812 L 154.160156 145.367188 L 156.167969 151.019531 L 145.566406 154.785156 Z M 143.558594 149.132812 "/>
</clipPath>
<clipPath id="clip38">
  <path d="M 143.558594 149.132812 L 153.882812 145.464844 L 155.910156 151.175781 L 145.589844 154.839844 Z M 143.558594 149.132812 "/>
</clipPath>
<clipPath id="clip39">
  <path d="M 147 150 L 150 150 L 150 153 L 147 153 Z M 147 150 "/>
</clipPath>
<clipPath id="clip40">
  <path d="M 143.558594 149.132812 L 154.160156 145.367188 L 156.167969 151.019531 L 145.566406 154.785156 Z M 143.558594 149.132812 "/>
</clipPath>
<clipPath id="clip41">
  <path d="M 143.558594 149.132812 L 154.160156 145.367188 L 156.167969 151.019531 L 145.566406 154.785156 Z M 143.558594 149.132812 "/>
</clipPath>
<clipPath id="clip42">
  <path d="M 143.558594 149.132812 L 153.882812 145.464844 L 155.910156 151.175781 L 145.589844 154.839844 Z M 143.558594 149.132812 "/>
</clipPath>
</defs>
<g id="surface1">
<path style=" stroke:none;fill-rule:nonzero;fill:rgb(96.078491%,56.858826%,54.508972%);fill-opacity:1;" d="M 136.53125 179.847656 C 136.667969 182.621094 136.898438 185.289062 137.371094 187.570312 C 137.484375 188.113281 136.855469 188.703125 137 188.976562 C 137.660156 190.261719 139.597656 189.351562 139.992188 187.613281 C 140.3125 186.210938 140.214844 183.835938 140.269531 183.082031 C 140.761719 176.972656 141.6875 170.855469 143.101562 164.929688 C 144.097656 160.636719 145.550781 156.4375 146.3125 152.097656 L 135.765625 165.53125 C 136.316406 169.5625 136.28125 174.875 136.53125 179.847656 "/>
<path style=" stroke:none;fill-rule:nonzero;fill:rgb(96.078491%,56.858826%,54.508972%);fill-opacity:1;" d="M 161.140625 184.679688 C 159.984375 182.804688 159.175781 181.207031 158.429688 179.179688 C 157.53125 176.75 156.304688 174.25 155.617188 171.796875 C 155.046875 169.957031 154.839844 168.027344 154.882812 166.085938 C 154.964844 162.433594 154.976562 159.242188 154.96875 155.941406 L 146.480469 158.679688 C 147.175781 165.027344 147.746094 171.183594 151.09375 176.714844 C 152.535156 179.296875 156.367188 183.386719 158.308594 185.703125 C 159.753906 187.335938 159.1875 188.160156 159.984375 188.703125 C 160.785156 189.25 161.292969 188.480469 161.554688 187.519531 C 161.820312 186.554688 161.640625 185.414062 161.140625 184.679688 "/>
<path style=" stroke:none;fill-rule:nonzero;fill:rgb(96.078491%,56.858826%,54.508972%);fill-opacity:1;" d="M 138.835938 113.140625 C 138.996094 112.644531 139.195312 112.144531 138.988281 111.480469 C 138.605469 110.425781 138.90625 110.011719 137.679688 110.277344 C 137.246094 110.347656 136.441406 110.917969 136.050781 111.273438 C 134.996094 112.285156 135.476562 113.394531 136.394531 114.421875 C 137.140625 114.023438 138.007812 113.390625 138.835938 113.140625 "/>
<path style=" stroke:none;fill-rule:nonzero;fill:rgb(96.078491%,56.858826%,54.508972%);fill-opacity:1;" d="M 143.054688 129.195312 C 143.660156 129.410156 144.238281 129.386719 144.777344 129.1875 L 144.675781 129.34375 C 144.847656 130.003906 144.8125 130.765625 144.664062 131.578125 C 144.664062 131.585938 144.664062 131.589844 144.664062 131.597656 C 145.800781 130.921875 147.78125 130.972656 149.398438 131.171875 C 148.652344 128.953125 147.898438 126.71875 147.554688 125.703125 C 148.582031 122.753906 148.3125 118.898438 145.734375 117.730469 C 141.296875 117.339844 139.652344 128.121094 143.054688 129.195312 "/>
<path style=" stroke:none;fill-rule:nonzero;fill:rgb(1.568604%,55.288696%,49.409485%);fill-opacity:1;" d="M 154.367188 157.171875 C 153.5 157.417969 152.015625 157.664062 151.148438 157.542969 C 149.539062 157.292969 149.910156 157.417969 149.539062 155.6875 C 148.820312 152.921875 147.679688 150.75 146.324219 148.328125 C 144.253906 148.503906 142.140625 148.25 140.066406 147.46875 L 142.121094 143.4375 C 142.394531 142.945312 142.640625 142.46875 142.839844 142.023438 L 142.894531 141.710938 C 142.289062 140.226562 141.867188 138.707031 141.867188 137.261719 C 141.867188 136.722656 141.949219 135.90625 142.140625 135.058594 L 141.832031 132.246094 L 139.417969 125.378906 C 137.714844 120.46875 137.996094 119.386719 136.292969 114.476562 C 137.152344 114.035156 138.183594 113.242188 139.132812 113.058594 C 140.539062 115.453125 141.59375 117.644531 142.550781 119.839844 C 142.535156 119.863281 142.519531 119.886719 142.507812 119.914062 C 142.46875 119.984375 142.433594 120.050781 142.398438 120.121094 C 142.386719 120.140625 142.378906 120.15625 142.367188 120.179688 C 142.328125 120.253906 142.289062 120.335938 142.25 120.414062 C 142.246094 120.425781 142.238281 120.441406 142.234375 120.453125 C 142.191406 120.542969 142.152344 120.628906 142.113281 120.71875 C 142.085938 120.789062 142.054688 120.859375 142.027344 120.929688 C 142 120.996094 141.976562 121.0625 141.953125 121.128906 C 141.875 121.34375 141.796875 121.558594 141.734375 121.78125 C 141.710938 121.859375 141.6875 121.941406 141.664062 122.019531 C 141.628906 122.148438 141.59375 122.277344 141.5625 122.410156 C 141.542969 122.507812 141.519531 122.605469 141.496094 122.703125 C 141.496094 122.710938 141.492188 122.71875 141.492188 122.726562 C 141.46875 122.832031 141.449219 122.941406 141.429688 123.046875 C 141.40625 123.167969 141.386719 123.292969 141.367188 123.417969 C 141.351562 123.507812 141.339844 123.597656 141.332031 123.6875 C 141.296875 123.9375 141.273438 124.1875 141.257812 124.4375 C 141.25 124.539062 141.246094 124.636719 141.242188 124.734375 C 141.175781 126.621094 141.601562 128.324219 142.617188 128.988281 C 142.683594 129.03125 142.753906 129.070312 142.828125 129.105469 C 142.898438 129.140625 142.976562 129.167969 143.054688 129.195312 C 143.660156 129.410156 144.238281 129.386719 144.777344 129.1875 L 144.675781 129.34375 C 144.785156 129.761719 144.8125 130.226562 144.777344 130.714844 C 144.769531 130.792969 144.765625 130.871094 144.757812 130.949219 C 144.753906 130.980469 144.75 131.019531 144.742188 131.054688 C 144.726562 131.226562 144.699219 131.398438 144.664062 131.578125 C 144.675781 131.578125 144.691406 131.574219 144.703125 131.574219 C 144.703125 131.574219 144.703125 131.574219 144.707031 131.574219 C 144.792969 131.527344 144.886719 131.480469 144.984375 131.4375 C 145.035156 131.417969 145.082031 131.398438 145.132812 131.378906 C 145.183594 131.359375 145.234375 131.339844 145.285156 131.324219 C 145.433594 131.277344 145.582031 131.238281 145.742188 131.199219 C 145.753906 131.195312 145.765625 131.195312 145.777344 131.191406 C 145.941406 131.15625 146.109375 131.128906 146.285156 131.109375 C 146.292969 131.109375 146.304688 131.105469 146.3125 131.105469 C 146.417969 131.09375 146.527344 131.082031 146.636719 131.074219 C 147.0625 131.039062 147.503906 131.035156 147.949219 131.050781 C 148.027344 131.054688 148.109375 131.058594 148.1875 131.0625 C 148.269531 131.066406 148.355469 131.074219 148.433594 131.078125 C 148.515625 131.082031 148.597656 131.089844 148.679688 131.097656 L 148.691406 131.097656 C 148.828125 131.109375 148.960938 131.121094 149.097656 131.136719 C 149.199219 131.148438 149.300781 131.160156 149.398438 131.171875 C 150.855469 131.351562 152.023438 131.652344 152.023438 131.652344 C 152.125 134.425781 152.628906 136.554688 152.628906 139.328125 C 152.628906 141.691406 151.808594 143.949219 152.421875 146.207031 C 152.449219 146.316406 152.484375 146.421875 152.515625 146.53125 C 152.074219 146.753906 151.625 146.957031 151.171875 147.144531 C 151.46875 148.667969 151.820312 150.101562 152.386719 151.605469 C 152.882812 153.089844 154.613281 155.6875 154.367188 157.171875 "/>
<g clip-path="url(#clip1)" clip-rule="nonzero">
<path style=" stroke:none;fill-rule:nonzero;fill:rgb(100%,100%,100%);fill-opacity:1;" d="M 156.59375 165.457031 C 156.59375 161.128906 156.59375 157.171875 155.109375 153.089844 C 154.546875 151.40625 153.585938 148.84375 152.410156 146.585938 C 152.003906 146.785156 151.589844 146.972656 151.171875 147.144531 C 151.46875 148.667969 151.820312 150.101562 152.386719 151.605469 C 152.882812 153.089844 154.613281 155.6875 154.367188 157.171875 C 154.265625 157.199219 154.15625 157.226562 154.042969 157.253906 C 154.300781 158.054688 154.167969 158.796875 153.148438 159.277344 C 151.625 159.96875 151.089844 158.796875 151.015625 157.519531 C 149.566406 157.300781 149.898438 157.367188 149.539062 155.6875 C 148.820312 152.921875 147.679688 150.75 146.324219 148.328125 C 144.488281 148.484375 142.621094 148.304688 140.773438 147.714844 C 139.148438 153.257812 137.480469 158.148438 135.675781 164.835938 C 134.5625 168.671875 132.582031 173.738281 132.828125 177.574219 C 136.417969 178.683594 140.628906 181.28125 144.589844 180.417969 C 144.339844 175.347656 145.570312 169.410156 146.3125 164.34375 C 147.054688 168.300781 145.949219 172.996094 146.816406 176.953125 C 147.0625 178.066406 147.0625 180.664062 147.929688 181.40625 C 148.921875 182.394531 151.023438 181.28125 152.386719 180.910156 C 154.613281 180.292969 156.84375 179.550781 158.824219 178.5625 C 160.800781 177.449219 160.308594 177.574219 159.195312 175.59375 C 157.460938 172.503906 156.59375 169.039062 156.59375 165.457031 "/>
</g>
<g clip-path="url(#clip2)" clip-rule="nonzero">
<path style=" stroke:none;fill-rule:nonzero;fill:rgb(100%,100%,100%);fill-opacity:1;" d="M 186.933594 142.675781 C 184.171875 138.1875 177.015625 136.101562 172.578125 134.140625 C 167.75 131.917969 160.628906 130.832031 155.417969 130.875 C 154.578125 130.878906 153.894531 130.847656 153.121094 131.171875 L 148.675781 130.625 C 148.992188 132.695312 148.476562 135.28125 148.425781 137.738281 C 149.347656 139.972656 150.097656 142.355469 150.570312 144.21875 C 152.871094 147.335938 156.234375 149.820312 159.214844 152.144531 C 163.464844 155.660156 166.707031 159.207031 169.984375 163.761719 C 171.835938 166.246094 173.203125 169.671875 175.339844 171.933594 C 177.960938 170.308594 180.078125 168.703125 181.804688 166.734375 C 183.53125 164.769531 184.871094 162.4375 185.929688 159.363281 C 187.316406 155.382812 189.402344 146.550781 186.933594 142.675781 "/>
</g>
<path style=" stroke:none;fill-rule:nonzero;fill:rgb(100%,100%,100%);fill-opacity:1;" d="M 144.578125 122.058594 C 145.425781 123.4375 141.945312 124.332031 142.035156 122.773438 C 142.480469 122.238281 143.863281 120.992188 144.578125 122.058594 Z M 142.925781 124.332031 C 144.488281 124.464844 146.492188 124.957031 148.011719 124.554688 C 147.816406 123.964844 146.691406 122.898438 146.691406 122.195312 C 146.691406 122.097656 146.710938 122.007812 146.761719 121.925781 C 145.824219 121.882812 145.066406 121.078125 144.132812 120.992188 C 143.417969 120.898438 142.703125 121.214844 141.992188 121.257812 L 141.855469 121.125 C 141.722656 121.527344 140.964844 122.90625 141.011719 123.394531 C 141.097656 124.289062 142.300781 124.242188 142.925781 124.332031 "/>
<path style=" stroke:none;fill-rule:nonzero;fill:rgb(76.078796%,48.239136%,40.779114%);fill-opacity:1;" d="M 166.625 132.480469 C 165.554688 131.027344 163.335938 130.339844 161.878906 129.269531 C 159.050781 127.050781 157.238281 124.3125 155.988281 121.089844 C 154.078125 116.164062 148.203125 113.894531 144.605469 117.714844 C 143.996094 119.078125 146.117188 123.359375 147.5 124.921875 C 147.554688 125.332031 147.609375 125.710938 147.667969 126.035156 C 147.972656 127.640625 148.105469 127.738281 148.414062 129.34375 C 148.796875 131.410156 149.332031 133.472656 150.328125 135.308594 C 150.863281 136.300781 154 139.433594 154.839844 137.066406 C 155.375 135.613281 153.464844 133.703125 153.921875 131.945312 C 154.992188 132.019531 155.988281 133.015625 156.984375 133.394531 C 158.898438 134.234375 161.191406 134.847656 163.335938 135 C 164.863281 135.152344 168.460938 134.773438 166.625 132.480469 "/>
<g clip-path="url(#clip3)" clip-rule="nonzero">
<g clip-path="url(#clip4)" clip-rule="nonzero">
<g clip-path="url(#clip5)" clip-rule="nonzero">
<g clip-path="url(#clip6)" clip-rule="nonzero">
<path style=" stroke:none;fill-rule:nonzero;fill:rgb(93.728638%,25.489807%,21.179199%);fill-opacity:1;" d="M 150.125 149.261719 C 150.125 149.261719 150.714844 147.570312 152.574219 146.191406 C 152.90625 145.945312 153.382812 146.070312 153.597656 146.457031 C 154.054688 147.300781 154.824219 148.804688 155.359375 150.386719 C 155.488281 150.769531 155.3125 151.179688 154.960938 151.3125 C 154.125 151.628906 152.515625 151.984375 150.753906 151.03125 "/>
</g>
</g>
</g>
</g>
<g clip-path="url(#clip7)" clip-rule="nonzero">
<g clip-path="url(#clip8)" clip-rule="nonzero">
<g clip-path="url(#clip9)" clip-rule="nonzero">
<g clip-path="url(#clip10)" clip-rule="nonzero">
<path style=" stroke:none;fill-rule:nonzero;fill:rgb(0%,0%,0%);fill-opacity:1;" d="M 154.929688 151.519531 C 154.066406 151.828125 152.445312 152.144531 150.683594 151.191406 L 150.828125 150.871094 C 152.539062 151.796875 154.109375 151.4375 154.898438 151.144531 C 155.164062 151.042969 155.296875 150.734375 155.195312 150.441406 C 154.65625 148.847656 153.867188 147.316406 153.445312 146.542969 C 153.371094 146.402344 153.242188 146.300781 153.09375 146.261719 C 152.945312 146.222656 152.796875 146.25 152.675781 146.339844 C 150.886719 147.667969 150.292969 149.316406 150.289062 149.332031 L 149.964844 149.195312 C 149.988281 149.125 150.59375 147.433594 152.472656 146.042969 C 152.667969 145.894531 152.921875 145.847656 153.160156 145.910156 C 153.40625 145.972656 153.617188 146.144531 153.742188 146.375 C 154.167969 147.15625 154.96875 148.710938 155.519531 150.332031 C 155.679688 150.8125 155.464844 151.320312 155.023438 151.484375 C 154.996094 151.496094 154.960938 151.507812 154.929688 151.519531 Z M 154.929688 151.519531 "/>
</g>
</g>
</g>
</g>
<g clip-path="url(#clip11)" clip-rule="nonzero">
<g clip-path="url(#clip12)" clip-rule="nonzero">
<g clip-path="url(#clip13)" clip-rule="nonzero">
<g clip-path="url(#clip14)" clip-rule="nonzero">
<path style=" stroke:none;fill-rule:nonzero;fill:rgb(93.728638%,25.489807%,21.179199%);fill-opacity:1;" d="M 148.871094 149.710938 C 148.871094 149.710938 147.34375 148.765625 145.03125 148.871094 C 144.621094 148.890625 144.328125 149.289062 144.410156 149.722656 C 144.582031 150.664062 144.9375 152.316406 145.519531 153.882812 C 145.664062 154.261719 146.054688 154.46875 146.414062 154.351562 C 147.261719 154.066406 148.734375 153.328125 149.5 151.476562 "/>
<path style=" stroke:none;fill-rule:nonzero;fill:rgb(0%,0%,0%);fill-opacity:1;" d="M 146.566406 154.492188 C 146.535156 154.503906 146.503906 154.511719 146.472656 154.523438 C 146.027344 154.671875 145.539062 154.417969 145.363281 153.941406 C 144.761719 152.335938 144.402344 150.625 144.242188 149.75 C 144.195312 149.488281 144.253906 149.226562 144.402344 149.023438 C 144.546875 148.820312 144.773438 148.699219 145.019531 148.6875 C 147.355469 148.582031 148.886719 149.515625 148.953125 149.554688 L 148.789062 149.867188 C 148.773438 149.855469 147.277344 148.949219 145.046875 149.050781 C 144.898438 149.058594 144.765625 149.128906 144.675781 149.253906 C 144.585938 149.378906 144.550781 149.539062 144.578125 149.695312 C 144.738281 150.558594 145.09375 152.242188 145.679688 153.824219 C 145.789062 154.113281 146.085938 154.265625 146.355469 154.175781 C 147.148438 153.910156 148.597656 153.199219 149.339844 151.398438 L 149.65625 151.558594 C 148.890625 153.410156 147.429688 154.183594 146.566406 154.492188 Z M 146.566406 154.492188 "/>
</g>
</g>
</g>
</g>
<g clip-path="url(#clip15)" clip-rule="nonzero">
<g clip-path="url(#clip16)" clip-rule="nonzero">
<g clip-path="url(#clip17)" clip-rule="nonzero">
<g clip-path="url(#clip18)" clip-rule="nonzero">
<path style=" stroke:none;fill-rule:nonzero;fill:rgb(93.728638%,25.489807%,21.179199%);fill-opacity:1;" d="M 148.871094 149.710938 L 150.125 149.261719 L 150.753906 151.03125 L 149.5 151.476562 Z M 148.871094 149.710938 "/>
<path style=" stroke:none;fill-rule:nonzero;fill:rgb(0%,0%,0%);fill-opacity:1;" d="M 150.976562 151.148438 L 149.398438 151.707031 L 148.648438 149.59375 L 150.226562 149.035156 Z M 149.597656 151.25 L 150.535156 150.917969 L 150.027344 149.492188 L 149.089844 149.824219 Z M 149.597656 151.25 "/>
</g>
</g>
</g>
</g>
<g clip-path="url(#clip19)" clip-rule="nonzero">
<g clip-path="url(#clip20)" clip-rule="nonzero">
<g clip-path="url(#clip21)" clip-rule="nonzero">
<g clip-path="url(#clip22)" clip-rule="nonzero">
<path style=" stroke:none;fill-rule:nonzero;fill:rgb(93.728638%,25.489807%,21.179199%);fill-opacity:1;" d="M 150.367188 149.9375 L 151.726562 148.910156 "/>
</g>
</g>
</g>
</g>
<g clip-path="url(#clip23)" clip-rule="nonzero">
<g clip-path="url(#clip24)" clip-rule="nonzero">
<g clip-path="url(#clip25)" clip-rule="nonzero">
<g clip-path="url(#clip26)" clip-rule="nonzero">
<path style=" stroke:none;fill-rule:nonzero;fill:rgb(0%,0%,0%);fill-opacity:1;" d="M 150.425781 150.109375 C 150.359375 150.132812 150.277344 150.109375 150.230469 150.039062 C 150.171875 149.957031 150.1875 149.84375 150.261719 149.789062 L 151.621094 148.757812 C 151.699219 148.703125 151.804688 148.722656 151.863281 148.804688 C 151.917969 148.886719 151.90625 149 151.832031 149.054688 L 150.46875 150.085938 C 150.457031 150.097656 150.441406 150.105469 150.425781 150.109375 Z M 150.425781 150.109375 "/>
</g>
</g>
</g>
</g>
<g clip-path="url(#clip27)" clip-rule="nonzero">
<g clip-path="url(#clip28)" clip-rule="nonzero">
<g clip-path="url(#clip29)" clip-rule="nonzero">
<g clip-path="url(#clip30)" clip-rule="nonzero">
<path style=" stroke:none;fill-rule:nonzero;fill:rgb(93.728638%,25.489807%,21.179199%);fill-opacity:1;" d="M 150.640625 150.382812 L 152.347656 150.351562 "/>
<path style=" stroke:none;fill-rule:nonzero;fill:rgb(0%,0%,0%);fill-opacity:1;" d="M 152.410156 150.523438 C 152.394531 150.53125 152.375 150.535156 152.359375 150.535156 L 150.652344 150.5625 C 150.558594 150.566406 150.476562 150.484375 150.472656 150.386719 C 150.464844 150.285156 150.535156 150.203125 150.632812 150.203125 L 152.335938 150.171875 C 152.433594 150.171875 152.511719 150.25 152.519531 150.351562 C 152.523438 150.429688 152.476562 150.5 152.410156 150.523438 Z M 152.410156 150.523438 "/>
</g>
</g>
</g>
</g>
<g clip-path="url(#clip31)" clip-rule="nonzero">
<g clip-path="url(#clip32)" clip-rule="nonzero">
<g clip-path="url(#clip33)" clip-rule="nonzero">
<g clip-path="url(#clip34)" clip-rule="nonzero">
<path style=" stroke:none;fill-rule:nonzero;fill:rgb(93.728638%,25.489807%,21.179199%);fill-opacity:1;" d="M 149.070312 150.398438 L 147.367188 150.457031 "/>
<path style=" stroke:none;fill-rule:nonzero;fill:rgb(0%,0%,0%);fill-opacity:1;" d="M 149.132812 150.570312 C 149.117188 150.574219 149.101562 150.578125 149.085938 150.578125 L 147.378906 150.636719 C 147.285156 150.640625 147.203125 150.5625 147.195312 150.464844 C 147.1875 150.363281 147.257812 150.277344 147.351562 150.277344 L 149.058594 150.21875 C 149.152344 150.214844 149.234375 150.292969 149.242188 150.390625 C 149.25 150.472656 149.203125 150.542969 149.132812 150.570312 Z M 149.132812 150.570312 "/>
</g>
</g>
</g>
</g>
<g clip-path="url(#clip35)" clip-rule="nonzero">
<g clip-path="url(#clip36)" clip-rule="nonzero">
<g clip-path="url(#clip37)" clip-rule="nonzero">
<g clip-path="url(#clip38)" clip-rule="nonzero">
<path style=" stroke:none;fill-rule:nonzero;fill:rgb(93.728638%,25.489807%,21.179199%);fill-opacity:1;" d="M 149.140625 150.914062 L 147.796875 151.96875 "/>
</g>
</g>
</g>
</g>
<g clip-path="url(#clip39)" clip-rule="nonzero">
<g clip-path="url(#clip40)" clip-rule="nonzero">
<g clip-path="url(#clip41)" clip-rule="nonzero">
<g clip-path="url(#clip42)" clip-rule="nonzero">
<path style=" stroke:none;fill-rule:nonzero;fill:rgb(0%,0%,0%);fill-opacity:1;" d="M 147.855469 152.140625 C 147.789062 152.167969 147.710938 152.140625 147.660156 152.074219 C 147.601562 151.992188 147.617188 151.878906 147.691406 151.824219 L 149.03125 150.769531 C 149.105469 150.710938 149.214844 150.730469 149.273438 150.8125 C 149.332031 150.890625 149.320312 151.007812 149.246094 151.0625 L 147.902344 152.117188 C 147.886719 152.128906 147.875 152.136719 147.855469 152.140625 Z M 147.855469 152.140625 "/>
</g>
</g>
</g>
</g>
</g>
</svg>
